HIERARCHY
ROOT joint_0
{
	OFFSET 0.000000 0.000000 0.000000
	CHANNELS 6 Xposition Yposition Zposition Zrotation Yrotation Xrotation 
	JOINT joint_1
	{
		OFFSET 0.587158 0.057678 95.682007
		CHANNELS 3 Zrotation Yrotation Xrotation
		JOINT joint_2
		{
			OFFSET -7.116699 -0.219910 87.157959
			CHANNELS 3 Zrotation Yrotation Xrotation
			JOINT joint_3
			{
				OFFSET -5.892822 -0.290222 87.151001
				CHANNELS 3 Zrotation Yrotation Xrotation
				JOINT joint_4
				{
					OFFSET 5.544678 -0.099609 123.768066
					CHANNELS 3 Zrotation Yrotation Xrotation
					JOINT joint_5
					{
						OFFSET 41.981201 4.519775 84.257935
						CHANNELS 3 Zrotation Yrotation Xrotation
						End Site
						{
							OFFSET 0.000000 0.000000 0.000000
						}
					}
				}
				JOINT joint_6
				{
					OFFSET 3.940918 -26.976501 69.308105
					CHANNELS 3 Zrotation Yrotation Xrotation
					JOINT joint_7
					{
						OFFSET 4.776123 -152.592468 -16.842041
						CHANNELS 3 Zrotation Yrotation Xrotation
						JOINT joint_8
						{
							OFFSET 54.421875 -30.424072 -248.864014
							CHANNELS 3 Zrotation Yrotation Xrotation
							JOINT joint_9
							{
								OFFSET 42.120117 -33.387878 -236.524963
								CHANNELS 3 Zrotation Yrotation Xrotation
								End Site
								{
									OFFSET 0.000000 0.000000 0.000000
								}
							}
						}
					}
				}
				JOINT joint_10
				{
					OFFSET 2.312012 26.904114 69.425049
					CHANNELS 3 Zrotation Yrotation Xrotation
					JOINT joint_11
					{
						OFFSET 0.971436 152.197815 -20.626953
						CHANNELS 3 Zrotation Yrotation Xrotation
						JOINT joint_12
						{
							OFFSET 49.954102 28.991455 -249.970093
							CHANNELS 3 Zrotation Yrotation Xrotation
							JOINT joint_13
							{
								OFFSET 48.146973 19.598389 -236.919922
								CHANNELS 3 Zrotation Yrotation Xrotation
								End Site
								{
									OFFSET 0.000000 0.000000 0.000000
								}
							}
						}
					}
				}
			}
		}
	}
	JOINT joint_14
	{
		OFFSET 16.305664 -89.442932 -108.224976
		CHANNELS 3 Zrotation Yrotation Xrotation
		JOINT joint_15
		{
			OFFSET -22.282471 13.437134 -412.904968
			CHANNELS 3 Zrotation Yrotation Xrotation
			JOINT joint_16
			{
				OFFSET -45.426025 14.484802 -445.892029
				CHANNELS 3 Zrotation Yrotation Xrotation
				JOINT joint_17
				{
					OFFSET 173.389404 -9.944031 -76.473001
					CHANNELS 3 Zrotation Yrotation Xrotation
					End Site
					{
						OFFSET 0.000000 0.000000 0.000000
					}
				}
			}
		}
	}
	JOINT joint_18
	{
		OFFSET 13.392822 89.408875 -108.653992
		CHANNELS 3 Zrotation Yrotation Xrotation
		JOINT joint_19
		{
			OFFSET -29.032959 24.483521 -411.977966
			CHANNELS 3 Zrotation Yrotation Xrotation
			JOINT joint_20
			{
				OFFSET -30.530029 28.986328 -446.453018
				CHANNELS 3 Zrotation Yrotation Xrotation
				JOINT joint_21
				{
					OFFSET 170.330078 33.400757 -76.698997
					CHANNELS 3 Zrotation Yrotation Xrotation
					End Site
					{
						OFFSET 0.000000 0.000000 0.000000
					}
				}
			}
		}
	}
}
MOTION
Frames: 6
Frame Time: 0.016667
-2882.551025 909.694397 1063.022949 3.389592 7.399619 0.072494 -0.180339 -7.663916 -0.075480 -0.248902 1.118615 0.013888 -0.265177 -1.477209 0.057517 -3.866439 -8.966713 8.536410 0.000000 0.000000 0.000000 -1.702715 3.021289 1.818962 -0.754864 2.789729 -2.248122 0.116747 -1.976612 -0.917034 0.000000 0.000000 0.000000 -0.954690 3.048382 0.333330 0.365744 3.230414 -0.313198 0.135850 -2.050509 1.526695 0.000000 0.000000 0.000000 -13.509066 -8.260509 -0.487536 -13.386684 1.962913 -1.786872 -13.193813 0.690149 -5.699111 0.000000 0.000000 0.000000 14.379566 -10.735246 -0.015208 15.284959 -2.582477 -0.441979 15.509028 7.047731 5.640261 0.000000 0.000000 0.000000 
-2882.538330 909.611755 1062.988037 3.390794 7.380707 0.077717 -0.181967 -7.663812 -0.070628 -0.250744 1.121147 0.012547 -0.266865 -1.476469 0.058413 -3.862372 -8.970749 8.528571 0.000000 0.000000 0.000000 -1.708994 3.025350 1.827254 -0.759758 2.792610 -2.271574 0.121376 -2.005380 -0.913954 0.000000 0.000000 0.000000 -0.943035 3.055161 0.300724 0.370910 3.235897 -0.289977 0.137410 -2.054272 1.536187 0.000000 0.000000 0.000000 -13.511162 -8.254218 -0.487471 -13.386705 1.989559 -1.800452 -13.198358 0.666025 -5.702368 0.000000 0.000000 0.000000 14.379654 -10.722722 -0.009252 15.284402 -2.567444 -0.438434 15.507791 7.051374 5.638773 0.000000 0.000000 0.000000 
-2882.516357 909.530457 1062.953979 3.392044 7.364976 0.082132 -0.184233 -7.664931 -0.064483 -0.253394 1.123327 0.010543 -0.269323 -1.477418 0.059153 -3.858856 -8.971057 8.521545 0.000000 0.000000 0.000000 -1.711170 3.028645 1.835365 -0.764680 2.795213 -2.294274 0.124431 -2.023077 -0.910935 0.000000 0.000000 0.000000 -0.930478 3.062676 0.271275 0.374947 3.241908 -0.272413 0.138854 -2.055223 1.543884 0.000000 0.000000 0.000000 -13.513127 -8.249147 -0.487446 -13.386905 2.014227 -1.810974 -13.202458 0.641933 -5.705459 0.000000 0.000000 0.000000 14.379944 -10.711109 -0.002716 15.284122 -2.556341 -0.437014 15.507052 7.056324 5.637298 0.000000 0.000000 0.000000 
-2882.480713 909.451660 1062.925049 3.392341 7.354898 0.085467 -0.186590 -7.669804 -0.058485 -0.256070 1.122527 0.010270 -0.271895 -1.476566 0.060048 -3.854697 -8.963773 8.512498 0.000000 0.000000 0.000000 -1.709643 3.029633 1.842880 -0.769495 2.795970 -2.315722 0.124417 -2.020019 -0.908701 0.000000 0.000000 0.000000 -0.919559 3.070671 0.246004 0.376953 3.248452 -0.264656 0.140348 -2.050138 1.549230 0.000000 0.000000 0.000000 -13.514337 -8.246600 -0.488237 -13.387001 2.035486 -1.815539 -13.205246 0.618523 -5.708001 0.000000 0.000000 0.000000 14.380834 -10.700841 0.004530 15.284485 -2.552447 -0.439436 15.507390 7.064232 5.635821 0.000000 0.000000 0.000000 
-2882.435059 909.374146 1062.897949 3.392845 7.348076 0.088122 -0.188796 -7.676669 -0.051037 -0.258822 1.121516 0.008530 -0.274403 -1.476112 0.061359 -3.850676 -8.953796 8.503397 0.000000 0.000000 0.000000 -1.707135 3.029521 1.850249 -0.774336 2.795755 -2.336659 0.122867 -2.005430 -0.905951 0.000000 0.000000 0.000000 -0.911210 3.078991 0.223170 0.377964 3.255591 -0.261994 0.141813 -2.042548 1.553336 0.000000 0.000000 0.000000 -13.515582 -8.245280 -0.489327 -13.387491 2.054748 -1.816581 -13.207713 0.595004 -5.710446 0.000000 0.000000 0.000000 14.381866 -10.691420 0.012238 15.285044 -2.552595 -0.444096 15.508147 7.073508 5.634312 0.000000 0.000000 0.000000 
-2882.380127 909.289978 1062.869019 3.394268 7.344182 0.091156 -0.190397 -7.685600 -0.046219 -0.260798 1.121115 0.007395 -0.276255 -1.476305 0.061765 -3.848452 -8.947890 8.498095 0.000000 0.000000 0.000000 -1.704146 3.030584 1.857604 -0.778606 2.796819 -2.354372 0.120989 -1.990285 -0.904580 0.000000 0.000000 0.000000 -0.904762 3.087179 0.201191 0.379218 3.262891 -0.258671 0.142622 -2.038003 1.555486 0.000000 0.000000 0.000000 -13.517024 -8.245974 -0.488927 -13.388128 2.072696 -1.818986 -13.210455 0.571996 -5.712964 0.000000 0.000000 0.000000 14.382489 -10.683697 0.018995 15.285202 -2.554799 -0.448497 15.508841 7.083955 5.632514 0.000000 0.000000 0.000000 
